STARTFONT 2.1
COMMENT screen font, 9 x 17 pixels
FONT -misc-fixed-medium-r-normal--17-140-75-75-c-90-iso8859-2
SIZE 17 72 72
FONTBOUNDINGBOX 9 17 0 -3
STARTPROPERTIES 27
FONT_ASCENT 14
FONT_DESCENT 3
DEFAULT_CHAR 0
FONTNAME_REGISTRY ""
FOUNDRY "Misc"
FAMILY_NAME "Fixed"
WEIGHT_NAME "Medium"
SLANT "R"
SETWIDTH_NAME "Normal"
ADD_STYLE_NAME ""
PIXEL_SIZE 17
POINT_SIZE 140
RESOLUTION_X 75
RESOLUTION_Y 75
SPACING "C"
AVERAGE_WIDTH 90
CHARSET_REGISTRY "ISO8859"
CHARSET_ENCODING "2"
UNDERLINE_POSITION -2
DESTINATION 1
COPYRIGHT "Libor Skarvada, libor@informatics.muni.cz"
FONT "-Misc-Fixed-Medium-R-Normal--17-140-75-75-C-90-ISO8859-2"
WEIGHT 10
RESOLUTION 75
CAP_HEIGHT 10
X_HEIGHT 7
QUAD_WIDTH 9
ENDPROPERTIES
CHARS 224
STARTCHAR 0
ENCODING 0
SWIDTH 750 0
DWIDTH 9 0
BBX 1 1 0 -3
BITMAP
00
ENDCHAR
STARTCHAR 1
ENCODING 1
SWIDTH 750 0
DWIDTH 9 0
BBX 7 7 1 1
BITMAP
10
38
7c
fe
7c
38
10
ENDCHAR
STARTCHAR 2
ENCODING 2
SWIDTH 750 0
DWIDTH 9 0
BBX 8 15 0 -3
BITMAP
aa
55
aa
55
aa
55
aa
55
aa
55
aa
55
aa
55
aa
ENDCHAR
STARTCHAR 3
ENCODING 3
SWIDTH 750 0
DWIDTH 9 0
BBX 8 13 0 -2
BITMAP
88
88
f8
88
88
88
00
1f
04
04
04
04
04
ENDCHAR
STARTCHAR 4
ENCODING 4
SWIDTH 750 0
DWIDTH 9 0
BBX 8 13 0 -2
BITMAP
f8
80
f0
80
80
80
00
1f
10
1e
10
10
10
ENDCHAR
STARTCHAR 5
ENCODING 5
SWIDTH 750 0
DWIDTH 9 0
BBX 8 13 0 -2
BITMAP
70
88
80
80
88
70
00
1e
11
11
1e
12
11
ENDCHAR
STARTCHAR 6
ENCODING 6
SWIDTH 750 0
DWIDTH 9 0
BBX 8 13 0 -2
BITMAP
80
80
80
80
80
f8
00
1f
10
1e
10
10
10
ENDCHAR
STARTCHAR 7
ENCODING 7
SWIDTH 750 0
DWIDTH 9 0
BBX 5 5 2 6
BITMAP
70
88
88
88
70
ENDCHAR
STARTCHAR 8
ENCODING 8
SWIDTH 750 0
DWIDTH 9 0
BBX 5 7 2 1
BITMAP
20
20
f8
20
20
00
f8
ENDCHAR
STARTCHAR 9
ENCODING 9
SWIDTH 750 0
DWIDTH 9 0
BBX 8 13 0 -2
BITMAP
88
c8
a8
98
88
88
00
10
10
10
10
10
1f
ENDCHAR
STARTCHAR 10
ENCODING 10
SWIDTH 750 0
DWIDTH 9 0
BBX 8 13 0 -2
BITMAP
88
88
88
88
50
20
00
1f
04
04
04
04
04
ENDCHAR
STARTCHAR 11
ENCODING 11
SWIDTH 750 0
DWIDTH 9 0
BBX 5 9 0 5
BITMAP
08
08
08
08
08
08
08
08
f8
ENDCHAR
STARTCHAR 12
ENCODING 12
SWIDTH 750 0
DWIDTH 9 0
BBX 5 9 0 -3
BITMAP
f8
08
08
08
08
08
08
08
08
ENDCHAR
STARTCHAR 13
ENCODING 13
SWIDTH 750 0
DWIDTH 9 0
BBX 5 9 4 -3
BITMAP
f8
80
80
80
80
80
80
80
80
ENDCHAR
STARTCHAR 14
ENCODING 14
SWIDTH 750 0
DWIDTH 9 0
BBX 5 9 4 5
BITMAP
80
80
80
80
80
80
80
80
f8
ENDCHAR
STARTCHAR 15
ENCODING 15
SWIDTH 750 0
DWIDTH 9 0
BBX 9 17 0 -3
BITMAP
0800
0800
0800
0800
0800
0800
0800
0800
ff80
0800
0800
0800
0800
0800
0800
0800
0800
ENDCHAR
STARTCHAR 16
ENCODING 16
SWIDTH 750 0
DWIDTH 9 0
BBX 9 1 0 11
BITMAP
ff80
ENDCHAR
STARTCHAR 17
ENCODING 17
SWIDTH 750 0
DWIDTH 9 0
BBX 9 1 0 8
BITMAP
ff80
ENDCHAR
STARTCHAR 18
ENCODING 18
SWIDTH 750 0
DWIDTH 9 0
BBX 9 1 0 5
BITMAP
ff80
ENDCHAR
STARTCHAR 19
ENCODING 19
SWIDTH 750 0
DWIDTH 9 0
BBX 9 1 0 2
BITMAP
ff80
ENDCHAR
STARTCHAR 20
ENCODING 20
SWIDTH 750 0
DWIDTH 9 0
BBX 9 1 0 -1
BITMAP
ff80
ENDCHAR
STARTCHAR 21
ENCODING 21
SWIDTH 750 0
DWIDTH 9 0
BBX 5 17 4 -3
BITMAP
80
80
80
80
80
80
80
80
f8
80
80
80
80
80
80
80
80
ENDCHAR
STARTCHAR 22
ENCODING 22
SWIDTH 750 0
DWIDTH 9 0
BBX 5 17 0 -3
BITMAP
08
08
08
08
08
08
08
08
f8
08
08
08
08
08
08
08
08
ENDCHAR
STARTCHAR 23
ENCODING 23
SWIDTH 750 0
DWIDTH 9 0
BBX 9 9 0 5
BITMAP
0800
0800
0800
0800
0800
0800
0800
0800
ff80
ENDCHAR
STARTCHAR 24
ENCODING 24
SWIDTH 750 0
DWIDTH 9 0
BBX 9 9 0 -3
BITMAP
ff80
0800
0800
0800
0800
0800
0800
0800
0800
ENDCHAR
STARTCHAR 25
ENCODING 25
SWIDTH 750 0
DWIDTH 9 0
BBX 1 17 4 -3
BITMAP
80
80
80
80
80
80
80
80
80
80
80
80
80
80
80
80
80
ENDCHAR
STARTCHAR 26
ENCODING 26
SWIDTH 750 0
DWIDTH 9 0
BBX 7 9 1 0
BITMAP
06
18
60
80
60
18
06
00
fe
ENDCHAR
STARTCHAR 27
ENCODING 27
SWIDTH 750 0
DWIDTH 9 0
BBX 7 9 1 0
BITMAP
c0
30
0c
02
0c
30
c0
00
fe
ENDCHAR
STARTCHAR 28
ENCODING 28
SWIDTH 750 0
DWIDTH 9 0
BBX 7 7 0 0
BITMAP
7e
a4
24
24
24
24
46
ENDCHAR
STARTCHAR 29
ENCODING 29
SWIDTH 750 0
DWIDTH 9 0
BBX 8 10 0 -1
BITMAP
04
04
08
ff
08
10
ff
20
20
40
ENDCHAR
STARTCHAR 30
ENCODING 30
SWIDTH 750 0
DWIDTH 9 0
BBX 8 10 0 0
BITMAP
0e
11
10
10
78
20
20
60
a1
5e
ENDCHAR
STARTCHAR 31
ENCODING 31
SWIDTH 750 0
DWIDTH 9 0
BBX 1 1 4 5
BITMAP
80
ENDCHAR
STARTCHAR 32
ENCODING 32
SWIDTH 750 0
DWIDTH 9 0
BBX 1 1 0 -3
BITMAP
00
ENDCHAR
STARTCHAR 33
ENCODING 33
SWIDTH 750 0
DWIDTH 9 0
BBX 2 10 3 0
BITMAP
c0
c0
c0
c0
c0
c0
c0
00
c0
c0
ENDCHAR
STARTCHAR 34
ENCODING 34
SWIDTH 750 0
DWIDTH 9 0
BBX 5 5 2 6
BITMAP
d8
d8
d8
50
50
ENDCHAR
STARTCHAR 35
ENCODING 35
SWIDTH 750 0
DWIDTH 9 0
BBX 8 11 0 0
BITMAP
24
24
24
ff
24
24
24
ff
24
24
24
ENDCHAR
STARTCHAR 36
ENCODING 36
SWIDTH 750 0
DWIDTH 9 0
BBX 6 14 1 -2
BITMAP
30
30
78
b4
b0
b0
70
38
34
34
b4
78
30
30
ENDCHAR
STARTCHAR 37
ENCODING 37
SWIDTH 750 0
DWIDTH 9 0
BBX 8 12 0 -1
BITMAP
62
92
94
64
08
08
10
10
26
29
49
46
ENDCHAR
STARTCHAR 38
ENCODING 38
SWIDTH 750 0
DWIDTH 9 0
BBX 7 12 1 0
BITMAP
70
88
88
88
50
20
50
8a
8a
84
8c
72
ENDCHAR
STARTCHAR 39
ENCODING 39
SWIDTH 750 0
DWIDTH 9 0
BBX 2 5 3 6
BITMAP
c0
c0
40
40
80
ENDCHAR
STARTCHAR 40
ENCODING 40
SWIDTH 750 0
DWIDTH 9 0
BBX 4 13 2 -1
BITMAP
10
20
60
40
c0
80
80
80
c0
40
60
20
10
ENDCHAR
STARTCHAR 41
ENCODING 41
SWIDTH 750 0
DWIDTH 9 0
BBX 4 13 2 -1
BITMAP
80
40
60
20
30
10
10
10
30
20
60
40
80
ENDCHAR
STARTCHAR 42
ENCODING 42
SWIDTH 750 0
DWIDTH 9 0
BBX 8 7 0 2
BITMAP
66
24
18
ff
18
24
66
ENDCHAR
STARTCHAR 43
ENCODING 43
SWIDTH 750 0
DWIDTH 9 0
BBX 7 7 1 2
BITMAP
10
10
10
fe
10
10
10
ENDCHAR
STARTCHAR 44
ENCODING 44
SWIDTH 750 0
DWIDTH 9 0
BBX 2 5 3 -3
BITMAP
c0
c0
40
40
80
ENDCHAR
STARTCHAR 45
ENCODING 45
SWIDTH 750 0
DWIDTH 9 0
BBX 7 1 1 5
BITMAP
fe
ENDCHAR
STARTCHAR 46
ENCODING 46
SWIDTH 750 0
DWIDTH 9 0
BBX 2 2 3 0
BITMAP
c0
c0
ENDCHAR
STARTCHAR 47
ENCODING 47
SWIDTH 750 0
DWIDTH 9 0
BBX 7 14 1 -2
BITMAP
02
02
04
04
08
08
10
10
20
20
40
40
80
80
ENDCHAR
STARTCHAR 48
ENCODING 48
SWIDTH 750 0
DWIDTH 9 0
BBX 7 10 1 0
BITMAP
38
44
82
82
82
82
82
82
44
38
ENDCHAR
STARTCHAR 49
ENCODING 49
SWIDTH 750 0
DWIDTH 9 0
BBX 5 10 2 0
BITMAP
20
60
a0
20
20
20
20
20
20
f8
ENDCHAR
STARTCHAR 50
ENCODING 50
SWIDTH 750 0
DWIDTH 9 0
BBX 6 10 1 0
BITMAP
78
84
84
04
08
10
20
40
80
fc
ENDCHAR
STARTCHAR 51
ENCODING 51
SWIDTH 750 0
DWIDTH 9 0
BBX 6 10 1 0
BITMAP
78
84
04
04
38
04
04
04
84
78
ENDCHAR
STARTCHAR 52
ENCODING 52
SWIDTH 750 0
DWIDTH 9 0
BBX 7 10 1 0
BITMAP
0c
14
14
24
24
44
44
fe
04
04
ENDCHAR
STARTCHAR 53
ENCODING 53
SWIDTH 750 0
DWIDTH 9 0
BBX 6 10 1 0
BITMAP
fc
80
80
f8
84
04
04
04
84
78
ENDCHAR
STARTCHAR 54
ENCODING 54
SWIDTH 750 0
DWIDTH 9 0
BBX 6 10 1 0
BITMAP
38
40
80
80
b8
c4
84
84
84
78
ENDCHAR
STARTCHAR 55
ENCODING 55
SWIDTH 750 0
DWIDTH 9 0
BBX 6 10 1 0
BITMAP
fc
84
08
08
10
10
20
20
40
40
ENDCHAR
STARTCHAR 56
ENCODING 56
SWIDTH 750 0
DWIDTH 9 0
BBX 6 10 1 0
BITMAP
78
84
84
48
30
48
84
84
84
78
ENDCHAR
STARTCHAR 57
ENCODING 57
SWIDTH 750 0
DWIDTH 9 0
BBX 6 10 1 0
BITMAP
78
84
84
84
8c
74
04
04
08
70
ENDCHAR
STARTCHAR 58
ENCODING 58
SWIDTH 750 0
DWIDTH 9 0
BBX 2 7 3 0
BITMAP
c0
c0
00
00
00
c0
c0
ENDCHAR
STARTCHAR 59
ENCODING 59
SWIDTH 750 0
DWIDTH 9 0
BBX 2 10 3 -3
BITMAP
c0
c0
00
00
00
c0
c0
40
40
80
ENDCHAR
STARTCHAR 60
ENCODING 60
SWIDTH 750 0
DWIDTH 9 0
BBX 7 9 1 1
BITMAP
06
08
30
40
80
40
30
08
06
ENDCHAR
STARTCHAR 61
ENCODING 61
SWIDTH 750 0
DWIDTH 9 0
BBX 7 4 1 4
BITMAP
fe
00
00
fe
ENDCHAR
STARTCHAR 62
ENCODING 62
SWIDTH 750 0
DWIDTH 9 0
BBX 7 9 1 1
BITMAP
c0
20
18
04
02
04
18
20
c0
ENDCHAR
STARTCHAR 63
ENCODING 63
SWIDTH 750 0
DWIDTH 9 0
BBX 6 11 1 0
BITMAP
78
cc
84
04
08
10
30
30
00
30
30
ENDCHAR
STARTCHAR 64
ENCODING 64
SWIDTH 750 0
DWIDTH 9 0
BBX 8 11 0 -1
BITMAP
3e
41
9d
a5
a5
a5
a5
a5
9f
40
3f
ENDCHAR
STARTCHAR 65
ENCODING 65
SWIDTH 750 0
DWIDTH 9 0
BBX 7 10 1 0
BITMAP
10
28
28
44
44
82
fe
82
82
82
ENDCHAR
STARTCHAR 66
ENCODING 66
SWIDTH 750 0
DWIDTH 9 0
BBX 7 10 1 0
BITMAP
f8
44
42
44
78
44
42
42
44
f8
ENDCHAR
STARTCHAR 67
ENCODING 67
SWIDTH 750 0
DWIDTH 9 0
BBX 7 10 1 0
BITMAP
3c
42
80
80
80
80
80
80
42
3c
ENDCHAR
STARTCHAR 68
ENCODING 68
SWIDTH 750 0
DWIDTH 9 0
BBX 7 10 1 0
BITMAP
f8
44
42
42
42
42
42
42
44
f8
ENDCHAR
STARTCHAR 69
ENCODING 69
SWIDTH 750 0
DWIDTH 9 0
BBX 7 10 1 0
BITMAP
fe
82
80
80
f8
80
80
80
82
fe
ENDCHAR
STARTCHAR 70
ENCODING 70
SWIDTH 750 0
DWIDTH 9 0
BBX 7 10 1 0
BITMAP
fe
82
80
80
f8
80
80
80
80
80
ENDCHAR
STARTCHAR 71
ENCODING 71
SWIDTH 750 0
DWIDTH 9 0
BBX 7 10 1 0
BITMAP
3c
42
80
80
80
9e
82
82
46
3a
ENDCHAR
STARTCHAR 72
ENCODING 72
SWIDTH 750 0
DWIDTH 9 0
BBX 7 10 1 0
BITMAP
82
82
82
82
fe
82
82
82
82
82
ENDCHAR
STARTCHAR 73
ENCODING 73
SWIDTH 750 0
DWIDTH 9 0
BBX 5 10 2 0
BITMAP
f8
20
20
20
20
20
20
20
20
f8
ENDCHAR
STARTCHAR 74
ENCODING 74
SWIDTH 750 0
DWIDTH 9 0
BBX 6 10 1 0
BITMAP
1c
04
04
04
04
04
04
04
84
78
ENDCHAR
STARTCHAR 75
ENCODING 75
SWIDTH 750 0
DWIDTH 9 0
BBX 7 10 1 0
BITMAP
82
84
88
90
a0
e0
90
88
84
82
ENDCHAR
STARTCHAR 76
ENCODING 76
SWIDTH 750 0
DWIDTH 9 0
BBX 7 10 1 0
BITMAP
80
80
80
80
80
80
80
80
82
fe
ENDCHAR
STARTCHAR 77
ENCODING 77
SWIDTH 750 0
DWIDTH 9 0
BBX 7 10 1 0
BITMAP
82
c6
c6
aa
aa
92
92
82
82
82
ENDCHAR
STARTCHAR 78
ENCODING 78
SWIDTH 750 0
DWIDTH 9 0
BBX 7 10 1 0
BITMAP
82
82
c2
a2
92
8a
86
86
82
82
ENDCHAR
STARTCHAR 79
ENCODING 79
SWIDTH 750 0
DWIDTH 9 0
BBX 7 10 1 0
BITMAP
7c
82
82
82
82
82
82
82
82
7c
ENDCHAR
STARTCHAR 80
ENCODING 80
SWIDTH 750 0
DWIDTH 9 0
BBX 7 10 1 0
BITMAP
fc
42
42
42
42
7c
40
40
40
e0
ENDCHAR
STARTCHAR 81
ENCODING 81
SWIDTH 750 0
DWIDTH 9 0
BBX 7 12 1 -2
BITMAP
7c
82
82
82
82
82
82
9a
8a
7c
06
02
ENDCHAR
STARTCHAR 82
ENCODING 82
SWIDTH 750 0
DWIDTH 9 0
BBX 7 10 1 0
BITMAP
fc
42
42
42
7c
50
48
48
44
e6
ENDCHAR
STARTCHAR 83
ENCODING 83
SWIDTH 750 0
DWIDTH 9 0
BBX 7 10 1 0
BITMAP
7c
82
80
80
78
04
02
02
82
7c
ENDCHAR
STARTCHAR 84
ENCODING 84
SWIDTH 750 0
DWIDTH 9 0
BBX 7 10 1 0
BITMAP
fe
92
10
10
10
10
10
10
10
38
ENDCHAR
STARTCHAR 85
ENCODING 85
SWIDTH 750 0
DWIDTH 9 0
BBX 7 10 1 0
BITMAP
82
82
82
82
82
82
82
82
82
7c
ENDCHAR
STARTCHAR 86
ENCODING 86
SWIDTH 750 0
DWIDTH 9 0
BBX 7 10 1 0
BITMAP
82
82
82
82
44
44
28
28
10
10
ENDCHAR
STARTCHAR 87
ENCODING 87
SWIDTH 750 0
DWIDTH 9 0
BBX 8 10 0 0
BITMAP
81
81
81
99
99
99
99
a5
42
42
ENDCHAR
STARTCHAR 88
ENCODING 88
SWIDTH 750 0
DWIDTH 9 0
BBX 8 10 0 0
BITMAP
c3
42
24
24
18
18
24
24
42
c3
ENDCHAR
STARTCHAR 89
ENCODING 89
SWIDTH 750 0
DWIDTH 9 0
BBX 7 10 1 0
BITMAP
82
82
82
44
28
10
10
10
10
10
ENDCHAR
STARTCHAR 90
ENCODING 90
SWIDTH 750 0
DWIDTH 9 0
BBX 7 10 1 0
BITMAP
fe
82
04
08
10
10
20
40
82
fe
ENDCHAR
STARTCHAR 91
ENCODING 91
SWIDTH 750 0
DWIDTH 9 0
BBX 4 13 2 -1
BITMAP
f0
c0
c0
c0
c0
c0
c0
c0
c0
c0
c0
c0
f0
ENDCHAR
STARTCHAR 92
ENCODING 92
SWIDTH 750 0
DWIDTH 9 0
BBX 7 14 1 -2
BITMAP
80
80
40
40
20
20
10
10
08
08
04
04
02
02
ENDCHAR
STARTCHAR 93
ENCODING 93
SWIDTH 750 0
DWIDTH 9 0
BBX 4 13 2 -1
BITMAP
f0
30
30
30
30
30
30
30
30
30
30
30
f0
ENDCHAR
STARTCHAR 94
ENCODING 94
SWIDTH 750 0
DWIDTH 9 0
BBX 5 3 1 9
BITMAP
20
70
88
ENDCHAR
STARTCHAR 95
ENCODING 95
SWIDTH 750 0
DWIDTH 9 0
BBX 9 1 0 -2
BITMAP
ff80
ENDCHAR
STARTCHAR 96
ENCODING 96
SWIDTH 750 0
DWIDTH 9 0
BBX 2 5 3 6
BITMAP
40
80
80
c0
c0
ENDCHAR
STARTCHAR 97
ENCODING 97
SWIDTH 750 0
DWIDTH 9 0
BBX 7 7 1 0
BITMAP
78
84
04
7c
84
8c
76
ENDCHAR
STARTCHAR 98
ENCODING 98
SWIDTH 750 0
DWIDTH 9 0
BBX 7 10 0 0
BITMAP
c0
40
40
5c
62
42
42
42
62
5c
ENDCHAR
STARTCHAR 99
ENCODING 99
SWIDTH 750 0
DWIDTH 9 0
BBX 6 7 1 0
BITMAP
38
44
80
80
80
44
38
ENDCHAR
STARTCHAR 100
ENCODING 100
SWIDTH 750 0
DWIDTH 9 0
BBX 7 10 0 0
BITMAP
0c
04
04
74
8c
84
84
84
8c
76
ENDCHAR
STARTCHAR 101
ENCODING 101
SWIDTH 750 0
DWIDTH 9 0
BBX 6 7 1 0
BITMAP
78
84
84
fc
80
80
78
ENDCHAR
STARTCHAR 102
ENCODING 102
SWIDTH 750 0
DWIDTH 9 0
BBX 7 10 1 0
BITMAP
1c
22
20
20
f8
20
20
20
20
78
ENDCHAR
STARTCHAR 103
ENCODING 103
SWIDTH 750 0
DWIDTH 9 0
BBX 7 10 1 -3
BITMAP
7a
84
84
84
78
80
7c
82
82
7c
ENDCHAR
STARTCHAR 104
ENCODING 104
SWIDTH 750 0
DWIDTH 9 0
BBX 7 10 0 0
BITMAP
c0
40
40
5c
62
42
42
42
42
42
ENDCHAR
STARTCHAR 105
ENCODING 105
SWIDTH 750 0
DWIDTH 9 0
BBX 3 10 2 0
BITMAP
40
40
00
c0
40
40
40
40
40
e0
ENDCHAR
STARTCHAR 106
ENCODING 106
SWIDTH 750 0
DWIDTH 9 0
BBX 5 13 0 -3
BITMAP
08
08
00
38
08
08
08
08
08
08
08
88
70
ENDCHAR
STARTCHAR 107
ENCODING 107
SWIDTH 750 0
DWIDTH 9 0
BBX 7 10 0 0
BITMAP
c0
40
40
44
48
50
70
48
44
42
ENDCHAR
STARTCHAR 108
ENCODING 108
SWIDTH 750 0
DWIDTH 9 0
BBX 5 10 2 0
BITMAP
e0
20
20
20
20
20
20
20
20
f8
ENDCHAR
STARTCHAR 109
ENCODING 109
SWIDTH 750 0
DWIDTH 9 0
BBX 8 7 0 0
BITMAP
b6
49
49
49
49
49
49
ENDCHAR
STARTCHAR 110
ENCODING 110
SWIDTH 750 0
DWIDTH 9 0
BBX 7 7 0 0
BITMAP
dc
62
42
42
42
42
42
ENDCHAR
STARTCHAR 111
ENCODING 111
SWIDTH 750 0
DWIDTH 9 0
BBX 6 7 1 0
BITMAP
78
84
84
84
84
84
78
ENDCHAR
STARTCHAR 112
ENCODING 112
SWIDTH 750 0
DWIDTH 9 0
BBX 7 10 0 -3
BITMAP
dc
62
42
42
42
62
5c
40
40
40
ENDCHAR
STARTCHAR 113
ENCODING 113
SWIDTH 750 0
DWIDTH 9 0
BBX 6 10 1 -3
BITMAP
74
8c
84
84
84
8c
74
04
04
04
ENDCHAR
STARTCHAR 114
ENCODING 114
SWIDTH 750 0
DWIDTH 9 0
BBX 6 7 1 0
BITMAP
dc
64
40
40
40
40
40
ENDCHAR
STARTCHAR 115
ENCODING 115
SWIDTH 750 0
DWIDTH 9 0
BBX 6 7 1 0
BITMAP
78
84
80
78
04
84
78
ENDCHAR
STARTCHAR 116
ENCODING 116
SWIDTH 750 0
DWIDTH 9 0
BBX 7 9 0 0
BITMAP
20
20
f8
20
20
20
20
22
1c
ENDCHAR
STARTCHAR 117
ENCODING 117
SWIDTH 750 0
DWIDTH 9 0
BBX 7 7 1 0
BITMAP
84
84
84
84
84
8c
76
ENDCHAR
STARTCHAR 118
ENCODING 118
SWIDTH 750 0
DWIDTH 9 0
BBX 6 7 1 0
BITMAP
84
84
84
48
48
30
30
ENDCHAR
STARTCHAR 119
ENCODING 119
SWIDTH 750 0
DWIDTH 9 0
BBX 7 7 1 0
BITMAP
82
92
92
aa
aa
44
44
ENDCHAR
STARTCHAR 120
ENCODING 120
SWIDTH 750 0
DWIDTH 9 0
BBX 7 7 1 0
BITMAP
c6
44
28
10
28
44
c6
ENDCHAR
STARTCHAR 121
ENCODING 121
SWIDTH 750 0
DWIDTH 9 0
BBX 7 10 1 -3
BITMAP
42
42
42
22
24
18
18
10
20
c0
ENDCHAR
STARTCHAR 122
ENCODING 122
SWIDTH 750 0
DWIDTH 9 0
BBX 6 7 1 0
BITMAP
fc
08
10
20
40
80
fc
ENDCHAR
STARTCHAR 123
ENCODING 123
SWIDTH 750 0
DWIDTH 9 0
BBX 5 13 2 -1
BITMAP
38
60
40
40
20
20
c0
20
20
40
40
60
38
ENDCHAR
STARTCHAR 124
ENCODING 124
SWIDTH 750 0
DWIDTH 9 0
BBX 1 13 4 -1
BITMAP
80
80
80
80
80
80
80
80
80
80
80
80
80
ENDCHAR
STARTCHAR 125
ENCODING 125
SWIDTH 750 0
DWIDTH 9 0
BBX 5 13 1 -1
BITMAP
e0
30
10
10
20
20
18
20
20
10
10
30
e0
ENDCHAR
STARTCHAR 126
ENCODING 126
SWIDTH 750 0
DWIDTH 9 0
BBX 7 4 0 7
BITMAP
60
92
92
0c
ENDCHAR
STARTCHAR 127
ENCODING 127
SWIDTH 750 0
DWIDTH 9 0
BBX 1 1 0 -3
BITMAP
00
ENDCHAR
STARTCHAR 160
ENCODING 160
SWIDTH 750 0
DWIDTH 9 0
BBX 1 1 0 -3
BITMAP
00
ENDCHAR
STARTCHAR 161
ENCODING 161
SWIDTH 750 0
DWIDTH 9 0
BBX 7 13 1 -3
BITMAP
10
28
28
44
44
82
fe
82
82
82
04
08
06
ENDCHAR
STARTCHAR 162
ENCODING 162
SWIDTH 750 0
DWIDTH 9 0
BBX 5 3 2 9
BITMAP
88
88
70
ENDCHAR
STARTCHAR 163
ENCODING 163
SWIDTH 750 0
DWIDTH 9 0
BBX 8 10 0 0
BITMAP
40
40
40
50
60
40
c0
40
41
7f
ENDCHAR
STARTCHAR 164
ENCODING 164
SWIDTH 750 0
DWIDTH 9 0
BBX 8 8 0 3
BITMAP
81
5a
24
42
42
24
5a
81
ENDCHAR
STARTCHAR 165
ENCODING 165
SWIDTH 750 0
DWIDTH 9 0
BBX 7 12 1 0
BITMAP
30
30
90
90
a0
80
80
80
80
80
82
fe
ENDCHAR
STARTCHAR 166
ENCODING 166
SWIDTH 750 0
DWIDTH 9 0
BBX 7 13 1 0
BITMAP
0c
30
00
7c
82
80
80
78
04
02
02
82
7c
ENDCHAR
STARTCHAR 167
ENCODING 167
SWIDTH 750 0
DWIDTH 9 0
BBX 5 13 2 -1
BITMAP
70
88
80
40
70
88
88
88
70
10
08
88
70
ENDCHAR
STARTCHAR 168
ENCODING 168
SWIDTH 750 0
DWIDTH 9 0
BBX 6 2 1 9
BITMAP
cc
cc
ENDCHAR
STARTCHAR 169
ENCODING 169
SWIDTH 750 0
DWIDTH 9 0
BBX 7 13 1 0
BITMAP
28
10
00
7c
82
80
80
78
04
02
02
82
7c
ENDCHAR
STARTCHAR 170
ENCODING 170
SWIDTH 750 0
DWIDTH 9 0
BBX 7 13 1 -3
BITMAP
7c
82
80
80
78
04
02
02
82
7c
18
08
10
ENDCHAR
STARTCHAR 171
ENCODING 171
SWIDTH 750 0
DWIDTH 9 0
BBX 7 13 1 0
BITMAP
28
10
00
fe
92
10
10
10
10
10
10
10
38
ENDCHAR
STARTCHAR 172
ENCODING 172
SWIDTH 750 0
DWIDTH 9 0
BBX 7 13 1 0
BITMAP
0c
30
00
fe
82
04
08
10
10
20
40
82
fe
ENDCHAR
STARTCHAR 173
ENCODING 173
SWIDTH 750 0
DWIDTH 9 0
BBX 5 1 2 6
BITMAP
f8
ENDCHAR
STARTCHAR 174
ENCODING 174
SWIDTH 750 0
DWIDTH 9 0
BBX 7 13 1 0
BITMAP
28
10
00
fe
82
04
08
10
10
20
40
82
fe
ENDCHAR
STARTCHAR 175
ENCODING 175
SWIDTH 750 0
DWIDTH 9 0
BBX 7 13 1 0
BITMAP
18
18
00
fe
82
04
08
10
10
20
40
82
fe
ENDCHAR
STARTCHAR 176
ENCODING 176
SWIDTH 750 0
DWIDTH 9 0
BBX 4 4 2 7
BITMAP
60
90
90
60
ENDCHAR
STARTCHAR 177
ENCODING 177
SWIDTH 750 0
DWIDTH 9 0
BBX 7 10 1 -3
BITMAP
78
84
04
7c
84
8c
76
04
08
06
ENDCHAR
STARTCHAR 178
ENCODING 178
SWIDTH 750 0
DWIDTH 9 0
BBX 4 4 4 -3
BITMAP
40
80
80
70
ENDCHAR
STARTCHAR 179
ENCODING 179
SWIDTH 750 0
DWIDTH 9 0
BBX 5 10 2 0
BITMAP
e0
20
28
30
20
60
a0
20
20
f8
ENDCHAR
STARTCHAR 180
ENCODING 180
SWIDTH 750 0
DWIDTH 9 0
BBX 3 3 3 9
BITMAP
20
40
80
ENDCHAR
STARTCHAR 181
ENCODING 181
SWIDTH 750 0
DWIDTH 9 0
BBX 6 12 2 0
BITMAP
0c
0c
e4
24
28
20
20
20
20
20
20
f8
ENDCHAR
STARTCHAR 182
ENCODING 182
SWIDTH 750 0
DWIDTH 9 0
BBX 6 11 1 0
BITMAP
08
10
20
00
78
84
80
78
04
84
78
ENDCHAR
STARTCHAR 183
ENCODING 183
SWIDTH 750 0
DWIDTH 9 0
BBX 5 3 2 9
BITMAP
88
50
20
ENDCHAR
STARTCHAR 184
ENCODING 184
SWIDTH 750 0
DWIDTH 9 0
BBX 4 4 3 -3
BITMAP
20
10
10
e0
ENDCHAR
STARTCHAR 185
ENCODING 185
SWIDTH 750 0
DWIDTH 9 0
BBX 6 10 1 0
BITMAP
48
30
00
78
84
80
78
04
84
78
ENDCHAR
STARTCHAR 186
ENCODING 186
SWIDTH 750 0
DWIDTH 9 0
BBX 6 10 1 -3
BITMAP
78
84
80
78
04
84
78
30
10
20
ENDCHAR
STARTCHAR 187
ENCODING 187
SWIDTH 750 0
DWIDTH 9 0
BBX 7 10 0 0
BITMAP
06
26
22
fa
24
20
20
20
22
1c
ENDCHAR
STARTCHAR 188
ENCODING 188
SWIDTH 750 0
DWIDTH 9 0
BBX 6 11 1 0
BITMAP
08
10
20
00
fc
08
10
20
40
80
fc
ENDCHAR
STARTCHAR 189
ENCODING 189
SWIDTH 750 0
DWIDTH 9 0
BBX 7 3 1 9
BITMAP
22
44
88
ENDCHAR
STARTCHAR 190
ENCODING 190
SWIDTH 750 0
DWIDTH 9 0
BBX 6 10 1 0
BITMAP
48
30
00
fc
08
10
20
40
80
fc
ENDCHAR
STARTCHAR 191
ENCODING 191
SWIDTH 750 0
DWIDTH 9 0
BBX 6 10 1 0
BITMAP
30
30
00
fc
08
10
20
40
80
fc
ENDCHAR
STARTCHAR 192
ENCODING 192
SWIDTH 750 0
DWIDTH 9 0
BBX 7 13 1 0
BITMAP
06
18
00
fc
42
42
42
7c
50
48
48
44
e6
ENDCHAR
STARTCHAR 193
ENCODING 193
SWIDTH 750 0
DWIDTH 9 0
BBX 7 13 1 0
BITMAP
06
18
00
10
28
28
44
44
82
fe
82
82
82
ENDCHAR
STARTCHAR 194
ENCODING 194
SWIDTH 750 0
DWIDTH 9 0
BBX 7 13 1 0
BITMAP
10
28
44
10
28
28
44
44
82
fe
82
82
82
ENDCHAR
STARTCHAR 195
ENCODING 195
SWIDTH 750 0
DWIDTH 9 0
BBX 7 13 1 0
BITMAP
44
38
00
10
28
28
44
44
82
fe
82
82
82
ENDCHAR
STARTCHAR 196
ENCODING 196
SWIDTH 750 0
DWIDTH 9 0
BBX 7 13 1 0
BITMAP
44
44
00
10
28
28
44
44
82
fe
82
82
82
ENDCHAR
STARTCHAR 197
ENCODING 197
SWIDTH 750 0
DWIDTH 9 0
BBX 7 13 1 0
BITMAP
18
60
00
80
80
80
80
80
80
80
80
82
fe
ENDCHAR
STARTCHAR 198
ENCODING 198
SWIDTH 750 0
DWIDTH 9 0
BBX 7 13 1 0
BITMAP
06
18
00
3c
42
80
80
80
80
80
80
42
3c
ENDCHAR
STARTCHAR 199
ENCODING 199
SWIDTH 750 0
DWIDTH 9 0
BBX 7 13 1 -3
BITMAP
3c
42
80
80
80
80
80
80
42
3c
18
0c
38
ENDCHAR
STARTCHAR 200
ENCODING 200
SWIDTH 750 0
DWIDTH 9 0
BBX 7 13 1 0
BITMAP
24
18
00
3c
42
80
80
80
80
80
80
42
3c
ENDCHAR
STARTCHAR 201
ENCODING 201
SWIDTH 750 0
DWIDTH 9 0
BBX 7 13 1 0
BITMAP
0c
30
00
fe
82
80
80
f8
80
80
80
82
fe
ENDCHAR
STARTCHAR 202
ENCODING 202
SWIDTH 750 0
DWIDTH 9 0
BBX 7 13 1 -3
BITMAP
fe
82
80
80
f8
80
80
80
82
fe
04
08
06
ENDCHAR
STARTCHAR 203
ENCODING 203
SWIDTH 750 0
DWIDTH 9 0
BBX 7 13 1 0
BITMAP
24
24
00
fe
82
80
80
f8
80
80
80
82
fe
ENDCHAR
STARTCHAR 204
ENCODING 204
SWIDTH 750 0
DWIDTH 9 0
BBX 7 13 1 0
BITMAP
24
18
00
fe
82
80
80
f8
80
80
80
82
fe
ENDCHAR
STARTCHAR 205
ENCODING 205
SWIDTH 750 0
DWIDTH 9 0
BBX 5 13 2 0
BITMAP
18
60
00
f8
20
20
20
20
20
20
20
20
f8
ENDCHAR
STARTCHAR 206
ENCODING 206
SWIDTH 750 0
DWIDTH 9 0
BBX 5 14 2 0
BITMAP
20
50
88
00
f8
20
20
20
20
20
20
20
20
f8
ENDCHAR
STARTCHAR 207
ENCODING 207
SWIDTH 750 0
DWIDTH 9 0
BBX 7 13 1 0
BITMAP
28
10
00
f8
44
42
42
42
42
42
42
44
f8
ENDCHAR
STARTCHAR 208
ENCODING 208
SWIDTH 750 0
DWIDTH 9 0
BBX 7 10 1 0
BITMAP
f8
44
42
42
f2
42
42
42
44
f8
ENDCHAR
STARTCHAR 209
ENCODING 209
SWIDTH 750 0
DWIDTH 9 0
BBX 7 13 1 0
BITMAP
0c
30
00
82
82
c2
a2
92
8a
86
86
82
82
ENDCHAR
STARTCHAR 210
ENCODING 210
SWIDTH 750 0
DWIDTH 9 0
BBX 7 13 1 0
BITMAP
28
10
00
82
82
c2
a2
92
8a
86
86
82
82
ENDCHAR
STARTCHAR 211
ENCODING 211
SWIDTH 750 0
DWIDTH 9 0
BBX 7 13 1 0
BITMAP
06
18
00
7c
82
82
82
82
82
82
82
82
7c
ENDCHAR
STARTCHAR 212
ENCODING 212
SWIDTH 750 0
DWIDTH 9 0
BBX 7 14 1 0
BITMAP
10
28
44
00
7c
82
82
82
82
82
82
82
82
7c
ENDCHAR
STARTCHAR 213
ENCODING 213
SWIDTH 750 0
DWIDTH 9 0
BBX 7 14 1 0
BITMAP
12
24
48
00
7c
82
82
82
82
82
82
82
82
7c
ENDCHAR
STARTCHAR 214
ENCODING 214
SWIDTH 750 0
DWIDTH 9 0
BBX 7 13 1 0
BITMAP
44
44
00
7c
82
82
82
82
82
82
82
82
7c
ENDCHAR
STARTCHAR 215
ENCODING 215
SWIDTH 750 0
DWIDTH 9 0
BBX 7 7 1 3
BITMAP
82
44
28
10
28
44
82
ENDCHAR
STARTCHAR 216
ENCODING 216
SWIDTH 750 0
DWIDTH 9 0
BBX 7 13 1 0
BITMAP
28
10
00
fc
42
42
42
7c
50
48
48
44
e6
ENDCHAR
STARTCHAR 217
ENCODING 217
SWIDTH 750 0
DWIDTH 9 0
BBX 7 14 1 0
BITMAP
10
28
28
10
82
82
82
82
82
82
82
82
82
7c
ENDCHAR
STARTCHAR 218
ENCODING 218
SWIDTH 750 0
DWIDTH 9 0
BBX 7 13 1 0
BITMAP
06
18
00
82
82
82
82
82
82
82
82
82
7c
ENDCHAR
STARTCHAR 219
ENCODING 219
SWIDTH 750 0
DWIDTH 9 0
BBX 7 14 1 0
BITMAP
12
24
48
00
82
82
82
82
82
82
82
82
82
7c
ENDCHAR
STARTCHAR 220
ENCODING 220
SWIDTH 750 0
DWIDTH 9 0
BBX 7 13 1 0
BITMAP
44
44
00
82
82
82
82
82
82
82
82
82
7c
ENDCHAR
STARTCHAR 221
ENCODING 221
SWIDTH 750 0
DWIDTH 9 0
BBX 7 13 1 0
BITMAP
06
18
00
82
82
82
44
28
10
10
10
10
10
ENDCHAR
STARTCHAR 222
ENCODING 222
SWIDTH 750 0
DWIDTH 9 0
BBX 7 13 1 -3
BITMAP
fe
92
10
10
10
10
10
10
10
38
18
08
10
ENDCHAR
STARTCHAR 223
ENCODING 223
SWIDTH 750 0
DWIDTH 9 0
BBX 8 11 0 -1
BITMAP
3c
42
42
44
ce
41
41
41
51
5e
80
ENDCHAR
STARTCHAR 224
ENCODING 224
SWIDTH 750 0
DWIDTH 9 0
BBX 6 11 1 0
BITMAP
04
08
10
00
dc
64
40
40
40
40
40
ENDCHAR
STARTCHAR 225
ENCODING 225
SWIDTH 750 0
DWIDTH 9 0
BBX 7 11 1 0
BITMAP
04
08
10
00
78
84
04
7c
84
8c
76
ENDCHAR
STARTCHAR 226
ENCODING 226
SWIDTH 750 0
DWIDTH 9 0
BBX 7 11 1 0
BITMAP
10
28
44
00
78
84
04
7c
84
8c
76
ENDCHAR
STARTCHAR 227
ENCODING 227
SWIDTH 750 0
DWIDTH 9 0
BBX 7 10 1 0
BITMAP
84
78
00
78
84
04
7c
84
8c
76
ENDCHAR
STARTCHAR 228
ENCODING 228
SWIDTH 750 0
DWIDTH 9 0
BBX 7 11 1 0
BITMAP
48
48
00
00
78
84
04
7c
84
8c
76
ENDCHAR
STARTCHAR 229
ENCODING 229
SWIDTH 750 0
DWIDTH 9 0
BBX 5 13 2 0
BITMAP
18
60
00
e0
20
20
20
20
20
20
20
20
f8
ENDCHAR
STARTCHAR 230
ENCODING 230
SWIDTH 750 0
DWIDTH 9 0
BBX 6 11 1 0
BITMAP
04
08
10
00
38
44
80
80
80
44
38
ENDCHAR
STARTCHAR 231
ENCODING 231
SWIDTH 750 0
DWIDTH 9 0
BBX 6 7 1 0
BITMAP
38
44
80
80
80
44
38
ENDCHAR
STARTCHAR 232
ENCODING 232
SWIDTH 750 0
DWIDTH 9 0
BBX 6 10 1 0
BITMAP
48
30
00
38
44
80
80
80
44
38
ENDCHAR
STARTCHAR 233
ENCODING 233
SWIDTH 750 0
DWIDTH 9 0
BBX 6 11 1 0
BITMAP
04
08
10
00
78
84
84
fc
80
80
78
ENDCHAR
STARTCHAR 234
ENCODING 234
SWIDTH 750 0
DWIDTH 9 0
BBX 6 10 1 -3
BITMAP
78
84
84
fc
80
80
78
10
20
18
ENDCHAR
STARTCHAR 235
ENCODING 235
SWIDTH 750 0
DWIDTH 9 0
BBX 6 10 1 0
BITMAP
48
48
00
78
84
84
fc
80
80
78
ENDCHAR
STARTCHAR 236
ENCODING 236
SWIDTH 750 0
DWIDTH 9 0
BBX 6 10 1 0
BITMAP
48
30
00
78
84
84
fc
80
80
78
ENDCHAR
STARTCHAR 237
ENCODING 237
SWIDTH 750 0
DWIDTH 9 0
BBX 3 11 2 0
BITMAP
20
40
80
00
c0
40
40
40
40
40
e0
ENDCHAR
STARTCHAR 238
ENCODING 238
SWIDTH 750 0
DWIDTH 9 0
BBX 5 11 1 0
BITMAP
20
50
88
00
60
20
20
20
20
20
70
ENDCHAR
STARTCHAR 239
ENCODING 239
SWIDTH 750 0
DWIDTH 9 0
BBX 9 12 0 0
BITMAP
0180
0180
0c80
0480
0500
7400
8c00
8400
8400
8400
8c00
7600
ENDCHAR
STARTCHAR 240
ENCODING 240
SWIDTH 750 0
DWIDTH 9 0
BBX 7 10 0 0
BITMAP
04
1e
04
74
8c
84
84
84
8c
76
ENDCHAR
STARTCHAR 241
ENCODING 241
SWIDTH 750 0
DWIDTH 9 0
BBX 7 11 0 0
BITMAP
04
08
10
00
dc
62
42
42
42
42
42
ENDCHAR
STARTCHAR 242
ENCODING 242
SWIDTH 750 0
DWIDTH 9 0
BBX 7 10 0 0
BITMAP
24
18
00
dc
62
42
42
42
42
42
ENDCHAR
STARTCHAR 243
ENCODING 243
SWIDTH 750 0
DWIDTH 9 0
BBX 6 11 1 0
BITMAP
08
10
20
00
78
84
84
84
84
84
78
ENDCHAR
STARTCHAR 244
ENCODING 244
SWIDTH 750 0
DWIDTH 9 0
BBX 6 11 1 0
BITMAP
30
48
84
00
78
84
84
84
84
84
78
ENDCHAR
STARTCHAR 245
ENCODING 245
SWIDTH 750 0
DWIDTH 9 0
BBX 7 11 1 0
BITMAP
22
44
88
00
78
84
84
84
84
84
78
ENDCHAR
STARTCHAR 246
ENCODING 246
SWIDTH 750 0
DWIDTH 9 0
BBX 6 11 1 0
BITMAP
48
48
00
00
78
84
84
84
84
84
78
ENDCHAR
STARTCHAR 247
ENCODING 247
SWIDTH 750 0
DWIDTH 9 0
BBX 7 7 1 2
BITMAP
10
10
00
fe
00
10
10
ENDCHAR
STARTCHAR 248
ENCODING 248
SWIDTH 750 0
DWIDTH 9 0
BBX 6 10 1 0
BITMAP
24
18
00
dc
64
40
40
40
40
40
ENDCHAR
STARTCHAR 249
ENCODING 249
SWIDTH 750 0
DWIDTH 9 0
BBX 7 11 1 0
BITMAP
30
48
30
00
84
84
84
84
84
8c
76
ENDCHAR
STARTCHAR 250
ENCODING 250
SWIDTH 750 0
DWIDTH 9 0
BBX 7 11 1 0
BITMAP
04
08
10
00
84
84
84
84
84
8c
76
ENDCHAR
STARTCHAR 251
ENCODING 251
SWIDTH 750 0
DWIDTH 9 0
BBX 7 11 1 0
BITMAP
12
24
48
00
84
84
84
84
84
8c
76
ENDCHAR
STARTCHAR 252
ENCODING 252
SWIDTH 750 0
DWIDTH 9 0
BBX 7 11 1 0
BITMAP
48
48
00
00
84
84
84
84
84
8c
76
ENDCHAR
STARTCHAR 253
ENCODING 253
SWIDTH 750 0
DWIDTH 9 0
BBX 7 14 1 -3
BITMAP
02
04
08
00
42
42
42
24
24
18
18
10
20
c0
ENDCHAR
STARTCHAR 254
ENCODING 254
SWIDTH 750 0
DWIDTH 9 0
BBX 7 12 0 -3
BITMAP
20
20
f8
20
20
20
20
22
1c
18
08
10
ENDCHAR
STARTCHAR 255
ENCODING 255
SWIDTH 750 0
DWIDTH 9 0
BBX 2 2 3 9
BITMAP
c0
c0
ENDCHAR
ENDFONT
